<?xml version="1.0" encoding="UTF-8"?>
<!-- Generator: visioncortex VTracer 0.6.4 -->
<svg version="1.1" xmlns="http://www.w3.org/2000/svg" width="1250" height="610">
<path d="M0 0 C8.39 5.92 12.03 14.06 13.88 24 C16.52 48.3 6.86 72.24 -7.84 91.21 C-17.68 103.24 -31.32 113.09 -47.12 115 C-49.42 115.07 -51.71 115.09 -54 115.06 C-55.73 115.05 -55.73 115.05 -57.49 115.04 C-58.8 115.02 -58.8 115.02 -60.12 115 C-60.91 113.29 -60.91 113.29 -61.12 111 C-59.25 108.77 -59.25 108.77 -56.56 106.38 C-51.84 101.87 -47.43 97.22 -45.12 91 C-45.42 87.73 -45.83 86.36 -47.94 83.81 C-54.38 75.53 -55.89 65.29 -54.94 55 C-52.45 35.29 -43.26 18.77 -28.12 6 C-19.93 0.06 -9.76 -5.53 0 0 Z " fill="#000000" transform="translate(1109.125,26)"/>
<path d="M0 0 C3.82 4.8 3.42 10.16 3 16 C2.68 18 2.35 20 2 22 C1.68 28.04 2.48 32.5 4.62 38.12 C4.89 38.86 5.16 39.59 5.44 40.35 C7.2 45.1 9.15 49.74 11.19 54.38 C22.38 79.92 20.31 114.72 12.22 140.96 C8.55 150.1 2.77 158.08 -3 166 C6.58 165.39 14.64 160 21 153 C31.02 140.17 36.27 125.52 37.33 109.31 C37.46 107.53 37.72 105.76 38 104 C41 102 41 102 43.88 102.06 C47.78 103.24 49.81 104.64 52 108 C59.77 123.71 63 140.39 58 157.25 C47.92 186.8 21.09 209.14 -5.86 222.98 C-17.87 228.7 -32.48 233.84 -45.79 230.25 C-56 226.31 -63.3 219.34 -71.18 211.96 C-76.32 207.26 -80.35 204.33 -87.5 203.69 C-93.1 205.79 -94.97 210.01 -98 215 C-125.28 259.63 -125.28 259.63 -148.93 266.57 C-159.31 268.74 -171.64 267.99 -181 263 C-181.65 262.66 -182.3 262.32 -182.97 261.97 C-192.2 256.29 -196.36 246.05 -199 236 C-205.81 205.95 -193.27 176.68 -181 150 C-184.95 151.43 -188.89 152.88 -192.8 154.41 C-195.21 155.35 -197.5 156.14 -200.01 156.81 C-203.67 158.01 -206.06 159.33 -208 162.77 C-209.84 166.8 -211.32 170.96 -212.81 175.13 C-223.71 205.35 -241.25 234.4 -263 258 C-264.15 259.26 -264.15 259.26 -265.32 260.54 C-281.92 277.88 -303.61 289.54 -327.81 290.31 C-344.68 289.96 -356.32 284.89 -368 273 C-372.7 267.61 -376.92 261.87 -381 256 C-384.82 257.33 -387.44 258.99 -390.5 261.62 C-401.81 270.88 -412.64 277.67 -427.49 277.37 C-433.59 276.73 -439.19 274.9 -445 273 C-445.31 273.7 -445.62 274.41 -445.94 275.13 C-469.38 327.83 -469.38 327.83 -495.89 339.27 C-504.07 342.1 -513.35 341.99 -521.52 339.23 C-528.78 335.62 -534.33 328.97 -539.33 322.73 C-541.33 320.66 -543.49 319.39 -546 318 C-546.43 318.72 -546.43 318.72 -546.87 319.46 C-560.91 343.05 -576.1 366.09 -603.84 374.11 C-608.04 375.12 -612.07 375.35 -616.38 375.31 C-617.12 375.31 -617.86 375.3 -618.63 375.3 C-630.2 375.04 -641.27 370.73 -649.81 362.75 C-657.81 354.05 -663.13 342.78 -664 331 C-675.16 338.01 -682.17 348.49 -689 359.5 C-698.12 374.17 -706.9 385.99 -723.85 391.61 C-732.88 393.24 -743.23 393.26 -751 388 C-762.38 379.85 -766.59 368.76 -771 356 C-775.46 359.05 -777.54 362.39 -779.75 367.19 C-780.44 368.62 -781.13 370.05 -781.82 371.48 C-782.36 372.59 -782.36 372.59 -782.9 373.72 C-795.74 400.28 -795.74 400.28 -808 405 C-817.3 408.1 -827.32 405.96 -836 402 C-846.03 396.51 -853.72 389.72 -861 381 C-861.51 380.39 -862.02 379.78 -862.55 379.16 C-863.71 377.78 -864.85 376.39 -866 375 C-873.53 378.39 -878.39 385.53 -883.19 392 C-884.32 393.5 -885.45 395 -886.59 396.5 C-887.15 397.25 -887.72 398 -888.3 398.78 C-892.34 404.06 -896.53 409.21 -900.7 414.39 C-902.5 416.62 -904.28 418.87 -906.06 421.12 C-921.04 439.81 -936.99 458.31 -956 473 C-956.93 473.74 -957.86 474.47 -958.82 475.23 C-982.89 493.87 -1014.74 509.16 -1046 506 C-1058.48 504.31 -1069.14 500.3 -1080 494 C-1081.31 493.24 -1081.31 493.24 -1082.64 492.46 C-1088.68 488.67 -1093.83 483.88 -1099 479 C-1100.02 478.08 -1100.02 478.08 -1101.06 477.14 C-1126.22 453.5 -1137.95 415.71 -1139.24 382 C-1141.13 290.06 -1079.17 197.76 -1021 131 C-1020.34 130.24 -1019.68 129.48 -1019 128.7 C-1017.35 126.79 -1015.68 124.89 -1014 123 C-1013.28 122.19 -1012.56 121.38 -1011.82 120.54 C-1007.89 116.13 -1003.89 111.84 -999.67 107.7 C-997.91 105.91 -996.3 104.04 -994.69 102.12 C-991.32 98.23 -987.64 94.86 -983.78 91.47 C-981.84 89.74 -979.94 88.01 -978.07 86.22 C-969.55 78.11 -960.51 70.91 -951 64 C-950.37 63.54 -949.74 63.08 -949.09 62.6 C-933.95 51.66 -914.38 39.79 -895 42 C-882.75 44.24 -871.66 50.2 -864.24 60.42 C-862.71 62.9 -861.33 65.41 -860 68 C-859.62 68.71 -859.24 69.42 -858.85 70.14 C-853.51 80.97 -852.46 93.04 -852.56 104.94 C-852.57 106.2 -852.58 107.45 -852.59 108.75 C-853.42 155.8 -875.84 199.95 -895.43 241.65 C-896.92 244.83 -898.4 248.02 -899.88 251.21 C-907.76 268.09 -916.18 284.51 -928 299 C-928.43 299.53 -928.86 300.07 -929.3 300.62 C-941.3 315.53 -954.81 328.29 -974 332.69 C-987.98 334.14 -1001.22 330.63 -1012.31 321.81 C-1017.88 316.67 -1021.49 309.41 -1022.2 301.84 C-1022.59 282.69 -1012.27 266.65 -1001 252 C-1000.35 251.13 -999.7 250.25 -999.03 249.35 C-987.73 234.78 -973.89 221.83 -959 211 C-930.96 190.6 -917.08 162.55 -911.32 128.37 C-910.4 121.5 -909.8 113.6 -912 107 C-917.44 106.16 -920.34 108.07 -924.59 111.12 C-937.46 121.18 -948.92 133.19 -959 146 C-959.92 147.12 -960.84 148.24 -961.76 149.35 C-969.82 159.15 -977 169.43 -984 180 C-984.49 180.75 -984.99 181.49 -985.5 182.26 C-988.72 187.14 -991.88 192.05 -995 197 C-995.56 197.88 -995.56 197.88 -996.12 198.77 C-1030.62 253.78 -1063.76 327.53 -1049.46 394.06 C-1048.39 398.57 -1046.95 402.79 -1045 407 C-1044.64 407.79 -1044.28 408.57 -1043.91 409.38 C-1038.87 419.38 -1031.57 425.43 -1021 429 C-1005.18 433.22 -992.89 430.27 -978.86 422.36 C-973.05 418.92 -967.85 414.74 -962.68 410.4 C-961.11 409.1 -959.52 407.82 -957.93 406.54 C-949.27 399.51 -941.44 391.62 -933.56 383.75 C-932.99 383.18 -932.43 382.62 -931.84 382.03 C-926.21 376.4 -920.63 370.75 -915.45 364.69 C-913.25 362.12 -910.93 359.67 -908.62 357.19 C-903.51 351.64 -898.72 345.88 -894 340 C-892.92 338.68 -891.84 337.36 -890.76 336.04 C-889.61 334.63 -888.46 333.22 -887.31 331.81 C-886.78 331.16 -886.24 330.51 -885.69 329.83 C-884.64 328.54 -883.59 327.24 -882.56 325.94 C-881.52 324.65 -880.46 323.38 -879.38 322.14 C-874.85 316.68 -873.42 311.37 -872 304.5 C-871.5 302.27 -871 300.04 -870.5 297.8 C-870.25 296.67 -870 295.54 -869.75 294.38 C-856.43 234.05 -856.43 234.05 -831.06 217.19 C-818.15 209.64 -802.98 209.38 -788.79 213.09 C-783.93 214.68 -781.06 216.86 -777.62 220.56 C-774.54 227.08 -775.38 233.67 -777.25 240.5 C-782.24 254.06 -791.99 266.06 -800.13 277.87 C-819.89 303.84 -819.89 303.84 -827.81 334.06 C-827.41 335.52 -827.41 335.52 -827 337 C-823.73 338.64 -821.65 338.46 -818 338 C-794.1 325.07 -781.19 290.34 -773.43 266.29 C-769.4 253.82 -764.6 241.86 -759 230 C-758.32 228.57 -758.32 228.57 -757.64 227.11 C-737.87 185.62 -737.87 185.62 -719.81 173.94 C-716.6 172.87 -714.37 172.69 -711 173 C-700.5 180.68 -689.47 200.27 -687 213 C-684.47 229.41 -696.4 244.22 -704.58 257.49 C-721.26 284.19 -721.26 284.19 -727.12 314.62 C-727.13 316.59 -727.13 316.59 -727.13 318.6 C-727.16 321.99 -727.16 321.99 -726 325 C-723.01 326.5 -721.36 326.43 -718 326 C-707.27 320.72 -698.51 311.08 -691.24 301.83 C-688.95 298.93 -686.54 296.16 -684.12 293.38 C-672.24 279.73 -672.24 279.73 -666.82 263.36 C-665.59 205.74 -649.49 146.53 -626 94 C-625.49 92.83 -625.49 92.83 -624.97 91.64 C-615.85 70.77 -602.69 44.57 -580.26 35.61 C-576.25 34.53 -572.9 34.53 -569 36 C-561.41 41.21 -558.64 52.44 -556.69 60.94 C-549.8 106.4 -562.73 158.97 -584 199 C-584.48 199.95 -584.96 200.89 -585.45 201.87 C-590.79 212.19 -597.7 221.61 -604.65 230.9 C-605.27 231.73 -605.89 232.55 -606.52 233.41 C-607.72 235 -608.93 236.59 -610.14 238.18 C-617.18 247.53 -621.95 255.94 -620.28 267.83 C-620.14 268.67 -620.01 269.51 -619.88 270.38 C-619.74 271.25 -619.6 272.13 -619.46 273.03 C-617.43 285.31 -614.77 298.97 -605.12 307.56 C-601.04 309.44 -599.33 309.23 -595 308 C-580.78 302.26 -570.25 292.16 -563.32 278.58 C-559.51 268.27 -558.45 257.76 -557.62 246.88 C-555.07 216.27 -550.81 172.35 -526.79 149.94 C-518.02 143.15 -510.3 142.46 -499.38 143.69 C-492.12 144.79 -486.7 146.09 -481.56 151.62 C-476.7 159.01 -478.6 170.01 -480.12 178.38 C-485.04 200.05 -495.46 219.48 -507.43 238.07 C-514.37 248.96 -514.89 257.86 -512.69 270.31 C-512.57 270.99 -512.45 271.68 -512.33 272.38 C-511.54 276.47 -510.37 279.57 -508 283 C-502.36 283.1 -499.39 281.97 -495.06 278.31 C-483.9 267.51 -476.67 254.11 -476.4 238.52 C-476.39 237.26 -476.38 235.99 -476.38 234.69 C-476.33 232.01 -476.26 229.33 -476.2 226.64 C-476.16 224.69 -476.16 224.69 -476.11 222.69 C-475.26 194.32 -470.61 160.37 -450.2 139.03 C-443.72 133.05 -436.09 130.56 -427.33 130.82 C-421.5 131.28 -415.67 132.02 -411.22 136.2 C-406.89 142.6 -406.36 151.49 -407 159 C-407.09 160.16 -407.19 161.32 -407.28 162.52 C-408.67 177.11 -413.17 190.51 -418.68 204.02 C-420.88 209.45 -422.14 214.22 -422.19 220.12 C-422.21 221.4 -422.21 221.4 -422.23 222.7 C-422.15 225.28 -422.15 225.28 -420 228 C-412.17 230.35 -407.06 227.61 -400.14 224.05 C-395.97 221.32 -393.58 218.74 -392 214 C-391.89 212.5 -391.82 211 -391.79 209.49 C-390.65 170.39 -377.46 136.48 -349.07 108.76 C-332.4 93.41 -310.97 81.02 -287.76 81.48 C-279.92 81.89 -275.66 84.05 -270.25 89.56 C-262.22 99.39 -261.5 111.6 -262.51 123.75 C-265.47 152.21 -285.18 175.2 -306.56 192.69 C-307.43 193.38 -308.3 194.07 -309.2 194.78 C-312.48 197.38 -315.68 200.05 -318.88 202.75 C-319.41 203.2 -319.95 203.65 -320.5 204.11 C-324.8 207.74 -328.87 211.3 -332 216 C-332.36 222.01 -330.73 228.25 -327 233 C-323.45 235.74 -320.03 236.85 -315.62 237.5 C-299.01 235.21 -286.55 222.07 -276.86 209.33 C-269.74 199.73 -263.57 189.64 -258.38 178.88 C-258.03 178.18 -257.69 177.48 -257.34 176.76 C-255.44 172.67 -254.42 169.5 -255 165 C-256.01 162.34 -256.01 162.34 -257.44 159.88 C-263.28 149.2 -260.46 138.16 -257.21 126.87 C-250.35 104.66 -240.18 79.6 -218.82 67.8 C-210.71 63.82 -203.58 63.14 -195 66 C-192.41 68.59 -192.76 70.4 -192.73 73.93 C-193.04 76.29 -193.83 77.94 -195 80 C-184.77 77.99 -175.15 75.09 -165.38 71.44 C-141.61 62.61 -141.61 62.61 -132 65 C-123.74 71.68 -120.48 81.82 -119 92 C-118.79 96.62 -118.81 101.25 -118.81 105.88 C-118.8 107.12 -118.79 108.36 -118.78 109.64 C-118.75 127.76 -126.73 138.52 -137.36 152.48 C-149.89 167.69 -149.89 167.69 -155.38 185.75 C-155.38 186.49 -155.39 187.22 -155.4 187.98 C-154.89 190.54 -154.02 191.4 -152 193 C-148.89 194.22 -146.86 194.31 -143.7 193.19 C-137.5 190.26 -132.17 186.49 -127 182 C-126.27 181.37 -125.54 180.73 -124.79 180.08 C-91.9 149.38 -69.48 92.93 -54.86 51.13 C-54.6 50.37 -54.33 49.62 -54.06 48.84 C-52.76 45.12 -51.49 41.41 -50.23 37.68 C-45.83 24.73 -41.07 12.25 -28.56 5.31 C-24.11 3.26 -19.54 1.87 -14.81 0.62 C-14.15 0.44 -13.48 0.26 -12.8 0.08 C-8.24 -1.03 -4.56 -1.1 0 0 Z M-31 92 C-36.13 98.44 -39.2 105.67 -42.25 113.25 C-47.1 125.04 -52.39 136.56 -58 148 C-52.59 152.44 -47.36 156.49 -40.31 157.56 C-34.74 156.62 -31.46 153.82 -27.94 149.56 C-19.4 137.37 -16.55 120.88 -18.54 106.23 C-19.89 99.69 -23.02 96.84 -28.26 93.1 C-29.8 91.91 -29.8 91.91 -31 92 Z M-592.63 113.64 C-593.32 114.77 -593.32 114.77 -594.02 115.91 C-594.52 116.74 -595.02 117.57 -595.54 118.42 C-597.76 122.34 -599.83 126.3 -601.75 130.38 C-602.17 131.26 -602.59 132.15 -603.02 133.07 C-617.91 164.29 -617.91 164.29 -623 198 C-622.34 198.66 -621.68 199.32 -621 200 C-617.93 199.85 -616.43 199.39 -614.15 197.3 C-598.91 176.43 -583 142.64 -583.63 116.19 C-583.82 113.8 -583.82 113.8 -586 112 C-589.07 111.53 -590.39 111.39 -592.63 113.64 Z M-322 138 C-328.25 146.26 -336.39 157.16 -335 168 C-333.83 169.38 -333.83 169.38 -330.56 169.38 C-320.15 169.13 -312.25 161.49 -305.33 154.44 C-299.89 148.57 -294.25 141.12 -293.91 132.83 C-294.14 129.64 -294.61 127.47 -296.69 125 C-307.21 120.45 -315.78 130.78 -322 138 Z " fill="#000000" transform="translate(1164,80)"/>
</svg>
