<?xml version="1.0" encoding="UTF-8"?>
<!-- Generator: visioncortex VTracer 0.6.4 -->
<svg version="1.1" xmlns="http://www.w3.org/2000/svg" width="96" height="96">
<path d="M0 0 C1.89 0.01 1.89 0.01 3.81 0.02 C5.07 0.01 6.33 0.01 7.62 0 C10.81 0.27 10.81 0.27 12.81 2.27 C13.23 4.43 13.23 4.43 13.44 6.89 C13.51 7.71 13.59 8.53 13.66 9.37 C13.71 9.99 13.76 10.62 13.81 11.27 C14.51 10.44 15.22 9.62 15.94 8.77 C18.81 6.27 18.81 6.27 21.69 5.52 C26.39 6.64 29.06 9.36 31.81 13.27 C32.56 16.39 32.56 16.39 31.81 19.27 C29.31 22.14 29.31 22.14 26.81 24.27 C27.52 24.4 28.23 24.53 28.96 24.67 C29.88 24.84 30.8 25.02 31.75 25.2 C32.67 25.38 33.58 25.55 34.53 25.73 C36.81 26.27 36.81 26.27 37.81 27.27 C37.99 29.39 38.08 31.51 38.12 33.64 C38.18 35.38 38.18 35.38 38.24 37.16 C37.81 40.27 37.81 40.27 36.03 42.14 C33.02 43.67 30.15 43.94 26.81 44.27 C27.64 44.97 28.46 45.67 29.31 46.39 C31.81 49.27 31.81 49.27 32.56 52.14 C31.43 56.85 28.72 59.51 24.81 62.27 C21.69 63.02 21.69 63.02 18.81 62.27 C17.1 60.64 15.43 58.98 13.81 57.27 C13.79 57.92 13.77 58.57 13.75 59.24 C13.66 62.18 13.55 65.13 13.44 68.08 C13.41 69.1 13.38 70.13 13.34 71.18 C13.31 72.16 13.27 73.15 13.23 74.16 C13.2 75.07 13.16 75.97 13.13 76.91 C12.81 79.27 12.81 79.27 10.81 82.27 C7.63 82.63 7.63 82.63 3.81 82.58 C1.93 82.57 1.93 82.57 0 82.57 C-3.19 82.27 -3.19 82.27 -5.19 80.27 C-5.45 78.17 -5.45 78.17 -5.44 75.77 C-5.44 74.97 -5.45 74.18 -5.45 73.36 C-5.19 71.27 -5.19 71.27 -3.19 69.27 C0.35 69.8 0.35 69.8 1.81 71.27 C1.85 72.93 1.86 74.6 1.81 76.27 C3.13 76.27 4.45 76.27 5.81 76.27 C5.81 70.33 5.81 64.39 5.81 58.27 C4.49 58.27 3.17 58.27 1.81 58.27 C1.83 59.23 1.85 60.2 1.88 61.2 C1.81 64.27 1.81 64.27 0.81 65.27 C-1.69 65.39 -1.69 65.39 -4.19 65.27 C-6.16 63.3 -5.85 59.92 -6.19 57.27 C-6.89 58.09 -7.59 58.92 -8.31 59.77 C-11.19 62.27 -11.19 62.27 -14.06 63.02 C-18.77 61.89 -21.43 59.17 -24.19 55.27 C-24.94 52.14 -24.94 52.14 -24.19 49.27 C-21.69 46.39 -21.69 46.39 -19.19 44.27 C-19.9 44.13 -20.61 44 -21.34 43.86 C-22.26 43.69 -23.18 43.51 -24.12 43.33 C-25.04 43.15 -25.96 42.98 -26.9 42.8 C-29.19 42.27 -29.19 42.27 -30.19 41.27 C-30.34 38.96 -30.41 36.64 -30.44 34.33 C-30.46 33.06 -30.49 31.79 -30.52 30.49 C-30.41 29.42 -30.3 28.36 -30.19 27.27 C-27.29 25.33 -26.29 24.96 -23 24.64 C-21.74 24.52 -20.48 24.39 -19.19 24.27 C-20.01 23.56 -20.84 22.86 -21.69 22.14 C-24.19 19.27 -24.19 19.27 -24.94 16.39 C-23.81 11.68 -21.09 9.04 -17.19 6.27 C-14.19 5.45 -14.19 5.45 -11.19 6.27 C-9.31 7.73 -7.59 9.3 -5.86 10.93 C-4.16 12.53 -4.16 12.53 -1.31 12.58 C-0.26 12.42 -0.26 12.42 0.81 12.27 C1.81 13.27 1.81 13.27 2.06 16.14 C1.81 19.27 1.81 19.27 0.75 21.2 C-1.19 22.27 -1.19 22.27 -4.56 22.33 C-9.3 20.94 -10.29 19.15 -13.19 15.27 C-13.85 15.27 -14.51 15.27 -15.19 15.27 C-14.01 18.15 -12.92 19.5 -10.56 21.64 C-8.19 24.27 -8.19 24.27 -7.75 27.45 C-8.19 30.27 -8.19 30.27 -10.19 32.27 C-13.23 32.46 -13.23 32.46 -16.81 32.39 C-18.6 32.36 -18.6 32.36 -20.41 32.34 C-21.79 32.3 -21.79 32.3 -23.19 32.27 C-23.19 33.59 -23.19 34.91 -23.19 36.27 C-21.81 36.23 -21.81 36.23 -20.41 36.2 C-19.23 36.18 -18.04 36.16 -16.81 36.14 C-15.63 36.12 -14.45 36.09 -13.23 36.07 C-10.19 36.27 -10.19 36.27 -8.19 38.27 C-7.71 41.26 -7.61 43.33 -9.24 45.96 C-11.03 48.15 -12.63 49.99 -15.19 51.27 C-15.19 51.93 -15.19 52.59 -15.19 53.27 C-10.3 51.42 -7.18 47.23 -3.79 43.43 C-1.25 40.76 0.3 39.35 3.98 38.73 C7 39.3 8.16 39.82 10.25 42.02 C11.02 42.78 11.02 42.78 11.81 43.56 C12.81 45.27 12.81 45.27 12.47 47.47 C12.25 48.06 12.04 48.65 11.81 49.27 C8.9 50.08 7.35 50.48 4.5 49.33 C3.94 48.98 3.39 48.63 2.81 48.27 C2.15 48.93 1.49 49.59 0.81 50.27 C1.51 50.31 2.21 50.36 2.93 50.41 C3.84 50.49 4.75 50.56 5.69 50.64 C6.59 50.71 7.5 50.78 8.43 50.85 C10.81 51.27 10.81 51.27 12.81 53.27 C13.31 52.28 13.31 52.28 13.81 51.27 C17.44 51.06 19.68 51.41 22.81 53.27 C21.58 49.56 19.85 48.62 16.81 46.27 C15.43 43.5 15.62 41.32 15.81 38.27 C17.81 36.27 17.81 36.27 20.85 36.07 C22.63 36.11 22.63 36.11 24.44 36.14 C25.63 36.16 26.81 36.18 28.04 36.2 C29.41 36.23 29.41 36.23 30.81 36.27 C30.81 34.95 30.81 33.63 30.81 32.27 C29.44 32.3 29.44 32.3 28.04 32.34 C26.26 32.36 26.26 32.36 24.44 32.39 C22.66 32.43 22.66 32.43 20.85 32.46 C17.81 32.27 17.81 32.27 15.81 30.27 C15.38 27.45 15.38 27.45 15.81 24.27 C18.19 21.64 18.19 21.64 20.81 19.27 C22.11 17.1 22.11 17.1 22.81 15.27 C22.15 15.27 21.49 15.27 20.81 15.27 C20.09 16.23 19.37 17.2 18.62 18.2 C16.42 20.96 15.82 21.26 12.19 22.33 C8.81 22.27 8.81 22.27 7.11 21.18 C5.18 18.33 5.52 15.98 5.62 12.58 C5.67 10.81 5.67 10.81 5.71 9 C5.74 8.1 5.78 7.2 5.81 6.27 C4.66 6.75 4.66 6.75 3.48 7.25 C0.69 8.31 -1.23 8.51 -4.19 8.27 C-5.19 7.27 -5.19 7.27 -5.38 4.83 C-5.08 0.82 -3.9 0.33 0 0 Z " fill="#FFFFFF" transform="translate(44.1875,6.734375)"/>
</svg>
