<?xml version="1.0" encoding="UTF-8"?>
<!-- Generator: visioncortex VTracer 0.6.4 -->
<svg version="1.1" xmlns="http://www.w3.org/2000/svg" width="100" height="100">
<path d="M0 0 C3.31 0.31 3.31 0.31 7 1 C7.41 1.5 7.82 2 8.24 2.52 C11.08 4.91 14.33 4.47 17.88 4.44 C18.58 4.46 19.29 4.48 20.02 4.5 C25.06 4.49 27.34 3.35 31 0 C33.81 -0.25 33.81 -0.25 36 0 C37.53 3.07 36.97 6.12 36.84 9.49 C37.01 12.21 37.77 13.61 39 16 C39.68 20.78 39.52 24.82 37.56 29.25 C34.15 32.92 30.27 35.43 26 38 C26.48 38.69 26.96 39.39 27.46 40.11 C29.19 43.36 29.49 45.65 29.69 49.31 C29.75 50.38 29.82 51.45 29.89 52.55 C29.94 53.76 29.94 53.76 30 55 C30.68 54.63 31.35 54.25 32.05 53.87 C32.94 53.4 33.83 52.92 34.75 52.44 C35.63 51.96 36.51 51.49 37.42 51 C40.21 49.92 41.27 49.93 44 51 C44.75 52.75 44.75 52.75 45 55 C40.73 60.94 32.8 63.34 26 65 C11.43 66.21 0.7 63.28 -10.94 54.55 C-17.07 49.13 -22.7 39.2 -24 31 C-24.63 20.66 -24.78 10.42 -18 2 C-15.52 2.99 -15.52 2.99 -13 4 C-13.44 7.58 -13.96 10.87 -15.06 14.31 C-17.41 23.54 -16.11 32.3 -11.56 40.64 C-7.15 47.47 -1.79 52.4 6 55 C6.33 53.68 6.66 52.36 7 51 C6.09 50.92 5.19 50.84 4.25 50.75 C0.47 49.88 -0.63 49.02 -3 46 C-4.64 43.02 -5.93 40.22 -7 37 C-3.43 37.31 -1.5 38.24 1.12 40.56 C3.75 43.32 3.75 43.32 7 43 C8.72 40.56 8.72 40.56 10 38 C9.4 37.64 8.79 37.27 8.17 36.9 C-0.63 31.36 -0.63 31.36 -3 26 C-3.74 20.14 -2.93 15.54 -1 10 C-0.87 7.33 -0.96 4.68 -1 2 C-0.67 1.34 -0.34 0.68 0 0 Z " fill="#FFFFFF" transform="translate(32,27)"/>
<path d="M0 0 C9.99 6.43 15.65 15.04 19.49 26.23 C21 35.75 20.95 47.4 15.21 55.52 C14.75 56.09 14.29 56.66 13.81 57.25 C12.49 56.92 11.17 56.59 9.81 56.25 C8.79 52.43 8.88 50.25 10.25 46.56 C13.37 36.79 11.94 28.56 7.81 19.25 C3.39 11.24 -3.53 6.28 -12.12 3.38 C-20.9 1.1 -28.79 1.89 -37.19 5.25 C-38.18 5.91 -39.17 6.57 -40.19 7.25 C-43.38 7.38 -43.38 7.38 -46.19 7.25 C-46.52 5.6 -46.85 3.95 -47.19 2.25 C-34.92 -10.02 -13.92 -7.81 0 0 Z " fill="#FFFFFF" transform="translate(72.1875,13.75)"/>
</svg>
