<?xml version="1.0" standalone="no"?>
<!DOCTYPE svg PUBLIC "-//W3C//DTD SVG 20010904//EN"
 "http://www.w3.org/TR/2001/REC-SVG-20010904/DTD/svg10.dtd">
<svg version="1.0" xmlns="http://www.w3.org/2000/svg"
 width="1090.000000pt" height="396.000000pt" viewBox="0 0 1090.000000 396.000000"
 preserveAspectRatio="xMidYMid meet">
<metadata>
Created by potrace 1.16, written by Peter Selinger 2001-2019
</metadata>
<g transform="translate(0.000000,396.000000) scale(0.100000,-0.100000)"
fill="#000000" stroke="none">
<path d="M1954 2755 c-295 -67 -529 -293 -606 -584 -29 -111 -29 -289 1 -396
155 -566 815 -784 1273 -421 122 97 215 239 264 401 36 123 39 301 5 420 -78
281 -290 494 -567 571 -80 22 -290 28 -370 9z m683 -550 c55 -16 133 -84 133
-115 0 -21 -123 -77 -129 -58 -2 6 -14 22 -27 35 -25 25 -80 31 -113 13 -25
-13 -51 -81 -51 -130 0 -49 26 -117 51 -130 37 -20 89 -12 118 19 l28 30 64
-24 c70 -26 72 -31 33 -83 -43 -55 -96 -77 -194 -77 -72 0 -92 4 -129 25 -61
35 -97 84 -117 159 -57 225 116 400 333 336z m-985 -180 c3 -211 7 -220 79
-220 31 0 46 6 60 24 17 21 19 41 19 203 l0 179 78 -3 77 -3 0 -195 c-1 -235
-8 -259 -90 -300 -42 -21 -64 -25 -140 -25 -109 0 -174 21 -207 68 -22 30 -23
42 -26 245 l-3 212 75 0 75 0 3 -185z m566 -77 l2 -258 -80 0 -80 0 0 260 0
261 78 -3 77 -3 3 -257z"/>
<path d="M3320 2370 c0 -123 13 -155 68 -169 26 -7 50 -7 75 0 54 15 67 47 67
169 l0 100 -25 0 c-25 0 -25 0 -25 -99 0 -108 -10 -131 -55 -131 -45 0 -55 23
-55 131 0 99 0 99 -25 99 l-25 0 0 -100z"/>
<path d="M3700 2335 l0 -135 25 0 c24 0 24 2 27 86 l3 86 55 -86 c42 -66 60
-86 77 -86 23 0 23 2 23 136 0 135 0 135 -22 132 -21 -3 -23 -9 -28 -85 l-5
-82 -55 84 c-42 65 -60 85 -77 85 -23 0 -23 -2 -23 -135z"/>
<path d="M4090 2336 l0 -136 25 0 26 0 -3 133 c-3 128 -4 132 -25 135 -23 3
-23 3 -23 -132z"/>
<path d="M4290 2463 c0 -5 17 -64 38 -133 38 -123 39 -125 69 -128 l31 -3 41
123 c23 68 41 129 41 136 0 8 -9 12 -22 10 -19 -2 -28 -18 -52 -95 -17 -51
-33 -93 -38 -93 -4 0 -8 5 -8 11 0 6 -12 49 -26 95 -23 74 -29 84 -50 84 -13
0 -24 -3 -24 -7z"/>
<path d="M4660 2335 l0 -135 100 0 c93 0 100 1 100 20 0 18 -7 20 -76 20 l-75
0 3 38 3 37 63 3 c53 3 63 6 60 20 -3 13 -16 18 -66 20 -61 3 -62 3 -62 32 l0
30 70 0 c68 0 70 1 70 25 0 25 0 25 -95 25 l-95 0 0 -135z"/>
<path d="M5018 2464 c-5 -4 -8 -65 -8 -136 l0 -128 25 0 c23 0 25 3 25 51 0
49 1 50 27 47 20 -2 34 -15 53 -48 21 -37 32 -46 58 -48 l32 -3 -30 51 c-16
28 -30 53 -30 55 0 2 11 15 25 29 31 32 32 67 1 103 -21 25 -32 28 -97 31 -41
2 -77 0 -81 -4z m143 -60 c22 -27 -1 -49 -52 -49 -42 0 -44 1 -47 33 -3 32 -3
32 41 32 28 0 49 -6 58 -16z"/>
<path d="M5413 2460 c-44 -18 -58 -86 -23 -118 11 -10 45 -24 74 -31 56 -12
75 -33 55 -57 -16 -20 -72 -17 -100 5 -22 17 -27 17 -44 5 -19 -14 -19 -15 1
-35 28 -27 92 -41 134 -29 48 14 70 38 70 76 0 39 -34 70 -89 80 -73 13 -94
44 -46 66 21 9 32 8 61 -6 28 -13 39 -14 50 -5 21 17 17 27 -16 44 -32 16 -92
19 -127 5z"/>
<path d="M5740 2335 l0 -135 25 0 25 0 0 135 0 135 -25 0 -25 0 0 -135z"/>
<path d="M5934 2455 c-9 -23 5 -35 42 -35 l34 0 0 -110 0 -110 25 0 25 0 0
110 0 110 40 0 c36 0 40 3 40 25 l0 25 -100 0 c-79 0 -102 -3 -106 -15z"/>
<path d="M6260 2465 c0 -2 20 -38 45 -78 39 -65 45 -82 45 -131 0 -53 1 -56
25 -56 23 0 25 3 25 53 0 46 6 61 50 127 27 41 50 78 50 83 0 17 -50 5 -63
-15 -8 -13 -23 -38 -34 -57 l-21 -34 -36 57 c-28 44 -41 56 -61 56 -14 0 -25
-2 -25 -5z"/>
<path d="M6856 2449 c-73 -57 -74 -187 -2 -234 30 -20 107 -23 139 -6 56 30
79 116 49 184 -33 74 -127 103 -186 56z m127 -51 c24 -29 23 -98 -4 -132 -25
-32 -70 -35 -99 -6 -31 31 -28 113 6 146 29 30 67 27 97 -8z"/>
<path d="M7200 2335 l0 -135 25 0 c24 0 25 3 25 55 l0 55 60 0 c57 0 60 1 60
25 0 24 -3 25 -60 25 l-60 0 0 30 0 30 60 0 c57 0 60 1 60 25 0 25 -1 25 -85
25 l-85 0 0 -135z"/>
<path d="M5179 1967 c-102 -38 -149 -115 -149 -240 0 -157 86 -250 230 -250
105 1 168 37 208 117 65 129 22 300 -90 357 -52 27 -149 34 -199 16z m160
-103 c52 -43 67 -153 32 -230 -49 -108 -200 -88 -230 30 -21 83 -6 154 41 198
41 39 113 40 157 2z"/>
<path d="M5905 1965 c-77 -27 -118 -105 -93 -181 16 -48 57 -76 134 -93 111
-24 134 -32 144 -51 5 -10 7 -26 4 -35 -8 -21 -56 -45 -89 -45 -35 0 -95 26
-125 55 l-25 24 -32 -30 c-18 -16 -33 -33 -33 -38 0 -14 60 -58 106 -77 57
-24 169 -22 221 5 77 39 108 108 81 179 -19 51 -62 76 -164 98 -82 17 -124 39
-124 64 0 6 9 19 20 30 29 29 94 26 149 -5 l44 -26 29 28 c34 32 34 43 5 64
-63 46 -176 61 -252 34z"/>
<path d="M6605 1965 c-109 -42 -165 -168 -136 -307 25 -116 105 -181 225 -180
72 0 110 13 149 50 51 48 52 59 8 82 l-40 20 -29 -29 c-37 -37 -87 -48 -135
-28 -48 21 -77 77 -77 152 0 105 46 165 127 165 38 0 50 -5 80 -35 l34 -34 40
15 c45 19 47 25 18 65 -46 64 -178 96 -264 64z"/>
<path d="M7846 1965 c-53 -19 -112 -79 -131 -133 -18 -54 -20 -149 -4 -203 16
-51 62 -105 112 -131 87 -44 222 -20 276 48 29 37 27 47 -18 65 -39 17 -39 17
-67 -12 -37 -38 -83 -46 -131 -23 -51 26 -76 72 -77 143 0 115 43 171 133 171
37 0 49 -5 76 -35 l33 -34 41 16 c23 9 41 20 41 26 0 5 -19 29 -43 52 -62 63
-153 82 -241 50z"/>
<path d="M8809 1966 c-60 -21 -96 -54 -125 -112 -47 -97 -32 -245 34 -317 53
-59 178 -79 246 -39 35 21 36 21 36 2 0 -17 7 -20 45 -20 l45 0 0 140 0 140
-116 0 -115 0 3 -47 3 -48 68 -3 c37 -2 67 -7 67 -12 0 -5 -5 -21 -12 -35 -23
-51 -100 -70 -158 -40 -81 42 -92 218 -18 287 24 23 39 28 79 28 42 0 53 -5
83 -35 l34 -34 41 17 c23 9 41 21 41 26 0 5 -19 28 -43 51 -61 62 -153 82
-238 51z"/>
<path d="M9336 1970 c-97 -31 -156 -119 -156 -233 0 -86 14 -135 52 -182 45
-54 100 -78 180 -78 128 0 209 68 230 194 21 122 -25 235 -114 280 -47 24
-146 34 -192 19z m153 -106 c52 -43 67 -153 32 -230 -34 -76 -124 -94 -190
-39 -52 44 -64 161 -25 237 31 61 129 78 183 32z"/>
<path d="M3320 1724 l0 -245 53 3 52 3 3 243 2 242 -55 0 -55 0 0 -246z"/>
<path d="M3550 1725 l0 -245 150 0 150 0 0 50 0 50 -100 0 -100 0 0 195 0 195
-50 0 -50 0 0 -245z"/>
<path d="M3922 1728 l3 -243 150 0 150 0 3 48 3 47 -100 0 -101 0 0 195 0 195
-55 0 -55 0 2 -242z"/>
<path d="M4300 1724 l0 -245 53 3 52 3 3 243 2 242 -55 0 -55 0 0 -246z"/>
<path d="M4530 1725 l0 -245 50 0 49 0 3 157 3 156 93 -156 93 -157 55 0 54 0
0 245 0 245 -57 0 -56 0 6 -157 c5 -153 5 -156 -12 -127 -10 16 -53 86 -95
157 l-77 127 -55 0 -54 0 0 -245z"/>
<path d="M5600 1725 l0 -245 50 0 50 0 0 245 0 245 -50 0 -50 0 0 -245z"/>
<path d="M6980 1725 l0 -245 50 0 49 0 3 103 3 102 90 0 90 0 3 -102 3 -103
49 0 50 0 0 245 0 245 -50 0 -49 0 -3 -92 -3 -93 -90 0 -90 0 -3 93 -3 92 -49
0 -50 0 0 -245z"/>
<path d="M7492 1728 l3 -243 53 -3 52 -3 0 245 0 246 -55 0 -55 0 2 -242z"/>
<path d="M8317 1928 c-28 -77 -147 -432 -147 -440 0 -4 25 -8 55 -8 l54 0 14
48 14 47 86 3 85 3 17 -51 17 -50 54 0 c30 0 54 3 54 8 0 4 -35 113 -78 242
l-78 235 -66 3 -65 3 -16 -43z m108 -161 c14 -48 25 -89 25 -92 0 -3 -25 -5
-55 -5 -33 0 -55 4 -55 11 0 17 52 180 56 176 2 -2 15 -42 29 -90z"/>
</g>
</svg>
