<?xml version="1.0" encoding="utf-8"?>
<!-- Generator: Adobe Illustrator 23.0.1, SVG Export Plug-In . SVG Version: 6.00 Build 0)  -->
<svg version="1.1" id="Layer_1" xmlns="http://www.w3.org/2000/svg" xmlns:xlink="http://www.w3.org/1999/xlink" x="0px" y="0px"
	 viewBox="0 0 1000 1000" style="enable-background:new 0 0 1000 1000;" xml:space="preserve">
<style type="text/css">
	.st0{fill:#2C70B8;}
	.st1{fill:#FBB619;}
	.st2{fill:#010101;}
	.st3{fill:#000000;}
</style>
<g>
	<path class="st3" d="M468,377.6c17.5,0,32.2-9.1,34.1-20.8l17.3-196.1c0-19.4-22.9-35.3-51.4-35.3c-28.7,0-51.4,15.9-51.4,35.3
		l17.5,196.1C435.9,368.5,450.6,377.6,468,377.6"/>
	<path class="st3" d="M361.8,439c8.7-15.3,8.2-32.3-1.2-39.9L199,286c-16.8-9.8-42,1.9-56.4,26.6c-14.4,24.7-11.5,52.4,5,62.1
		l179,83c11.5,4.3,26.4-3.7,35.2-18.8"/>
	<path class="st3" d="M574.3,438.8c9.2,15.2,24.1,23.1,35.3,19.1l179-83.2c16.6-9.8,19.1-37.3,5.1-62
		c-14.4-24.7-39.7-36.4-56.5-26.7L575.4,398.9c-9,7.7-9.6,24.8-1,40.1"/>
	<path class="st3" d="M468,622.6c17.5,0,32.2,9.1,34.1,20.8l17.3,196.1c0,19.4-22.9,35.2-51.4,35.2c-28.7,0-51.4-15.7-51.4-35.2
		l17.5-196.1C435.9,631.7,450.6,622.6,468,622.6"/>
	<path class="st3" d="M574.3,561.4c9.2-15.2,24.1-23.3,35.3-18.9l179,83c16.6,9.6,19.1,37.3,5.1,62.1
		c-14.4,24.6-39.7,36.2-56.5,26.6L575.4,601.1c-9-7.6-9.6-24.6-1-39.7"/>
	<path class="st3" d="M361.8,561.2c8.7,15.3,8.2,32.3-1.2,39.9L199,714c-16.8,9.8-42-1.9-56.4-26.5c-14.4-24.7-11.5-52.4,5-62.1
		l179-83C338,538.1,353,546.1,361.8,561.2"/>
	<path class="st3" d="M840.9,697h2.2c3,0,4.3,1,4.6,3.4c0.7,2.7,1,4.5,1.6,5.2h5.7c-0.5-0.6-1.2-2-1.5-5.4c-0.7-2.9-2.1-4.6-4.3-5.1
		v-0.5c2.9-0.7,4.6-2.6,4.6-5c0-2.2-1-3.8-2-4.7c-1.9-0.9-3.8-1.6-7.8-1.6c-3.6,0-6.2,0.3-8.4,0.8v21.7h5.1V697z M841,687.1l2.6-0.3
		c3.1,0,4.7,1.4,4.7,3.4c0,2.2-2.2,3.3-5.1,3.3H841V687.1z M844.3,672.4c-12.6,0-22.5,9.8-22.5,21.8c0,12.3,10,22.1,22.5,22.1
		c12.7,0,22.4-9.8,22.4-22.1C866.7,682.2,857,672.4,844.3,672.4 M844.3,676.8c9.7,0,16.8,7.8,16.8,17.4c0,9.7-7.2,17.7-16.8,17.6
		c-9.7,0-17-7.9-17-17.6c0-9.6,7.3-17.4,16.8-17.4"/>
</g>
</svg>
