<?xml version="1.0" encoding="UTF-8"?>
<!-- Generator: visioncortex VTracer 0.6.4 -->
<svg version="1.1" xmlns="http://www.w3.org/2000/svg" width="100" height="100">
<path d="M0 0 C1.77 -0.02 1.77 -0.02 3.58 -0.04 C4.85 -0.04 6.13 -0.04 7.44 -0.05 C8.75 -0.05 10.06 -0.06 11.41 -0.07 C14.19 -0.08 16.96 -0.08 19.74 -0.08 C23.29 -0.08 26.83 -0.11 30.38 -0.14 C33.77 -0.17 37.17 -0.17 40.56 -0.17 C42.47 -0.19 42.47 -0.19 44.41 -0.21 C55.58 -0.16 55.58 -0.16 60.13 4.29 C62.87 7.81 62.42 11.99 62.4 16.27 C62.4 17.03 62.4 17.8 62.4 18.59 C62.41 20.21 62.4 21.82 62.39 23.44 C62.38 25.91 62.39 28.39 62.41 30.87 C62.41 32.44 62.4 34.01 62.4 35.58 C62.4 36.32 62.41 37.07 62.41 37.83 C62.36 43.06 62.36 43.06 60.13 45.29 C57.51 44.92 57.51 44.92 55.13 44.29 C55.12 43.31 55.1 42.32 55.09 41.31 C55.03 37.66 54.95 34.01 54.87 30.36 C54.84 28.78 54.81 27.2 54.79 25.62 C54.75 23.34 54.7 21.07 54.65 18.8 C54.64 18.1 54.63 17.39 54.63 16.66 C54.54 12.9 54.54 12.9 52.93 9.6 C50.49 7.82 48.89 7.91 45.88 7.9 C44.81 7.89 43.74 7.88 42.64 7.87 C41.48 7.88 40.32 7.89 39.13 7.89 C37.35 7.89 37.35 7.89 35.54 7.88 C33.02 7.88 30.51 7.89 28 7.9 C24.15 7.92 20.3 7.9 16.45 7.88 C14.01 7.88 11.57 7.89 9.13 7.89 C7.4 7.88 7.4 7.88 5.63 7.87 C4.56 7.88 3.49 7.89 2.38 7.9 C0.97 7.91 0.97 7.91 -0.48 7.91 C-3.29 8.36 -4.18 9.03 -5.87 11.29 C-6.37 13.41 -6.37 13.41 -6.38 15.74 C-6.41 16.59 -6.45 17.43 -6.49 18.31 C-6.51 19.19 -6.53 20.07 -6.55 20.98 C-6.59 21.87 -6.62 22.76 -6.66 23.68 C-6.74 25.89 -6.81 28.09 -6.87 30.29 C-8.85 31.28 -8.85 31.28 -10.87 32.29 C-11.86 31.63 -12.85 30.97 -13.87 30.29 C-14.53 26.75 -14.33 23.14 -14.3 19.54 C-14.32 18.55 -14.34 17.56 -14.36 16.54 C-14.36 10.66 -14.02 6.82 -9.87 2.29 C-6.57 0.18 -3.88 0.03 0 0 Z " fill="#FFFFFF" transform="translate(25.86669921875,11.70947265625)"/>
<path d="M0 0 C2.62 0.38 2.62 0.38 5 1 C5.01 1.83 5.03 2.66 5.04 3.52 C5.11 6.61 5.18 9.71 5.26 12.8 C5.31 14.79 5.35 16.79 5.38 18.78 C5.42 20.04 5.45 21.29 5.49 22.58 C5.51 23.74 5.54 24.9 5.57 26.09 C6.05 29.37 6.4 30.06 9 32 C11.46 32.45 11.46 32.45 14.25 32.39 C15.32 32.4 16.39 32.41 17.5 32.42 C18.65 32.41 19.81 32.4 21 32.4 C22.78 32.4 22.78 32.4 24.6 32.41 C27.11 32.41 29.62 32.4 32.13 32.39 C35.98 32.38 39.84 32.39 43.69 32.41 C46.13 32.41 48.56 32.4 51 32.4 C52.73 32.41 52.73 32.41 54.5 32.42 C55.58 32.41 56.65 32.4 57.75 32.39 C58.69 32.39 59.64 32.38 60.61 32.38 C63.04 32.18 63.04 32.18 64.8 30.67 C67.18 27.35 66.43 22.87 66.5 18.93 C66.66 17.97 66.83 17 67 16 C69.04 14.6 69.04 14.6 71 14 C71.99 14.66 72.98 15.32 74 16 C74.33 18.68 74.46 21.07 74.44 23.75 C74.46 24.45 74.48 25.16 74.5 25.88 C74.49 31 73.42 33.99 70 38 C66.71 40.12 64 40.26 60.13 40.29 C58.95 40.3 57.77 40.32 56.55 40.33 C55.28 40.33 54.01 40.33 52.7 40.34 C50.73 40.35 50.73 40.35 48.72 40.36 C45.94 40.37 43.17 40.37 40.39 40.37 C36.85 40.37 33.3 40.4 29.75 40.43 C26.36 40.46 22.97 40.46 19.57 40.46 C17.67 40.48 17.67 40.48 15.73 40.5 C4.56 40.45 4.56 40.45 0 36 C-2.52 32.62 -2.26 29.23 -2.27 25.12 C-2.27 24.46 -2.27 23.81 -2.27 23.13 C-2.27 21.75 -2.27 20.37 -2.26 18.99 C-2.25 16.88 -2.26 14.76 -2.27 12.64 C-2.27 11.3 -2.27 9.96 -2.27 8.62 C-2.26 7.4 -2.26 6.18 -2.26 4.92 C-2 2 -2 2 0 0 Z " fill="#FFFFFF" transform="translate(14,48)"/>
<path d="M0 0 C1.37 0.02 1.37 0.02 2.78 0.04 C3.7 0.04 4.62 0.05 5.56 0.06 C6.27 0.07 6.98 0.09 7.71 0.1 C7.71 0.76 7.71 1.42 7.71 2.1 C8.4 1.77 9.08 1.44 9.78 1.1 C13.37 -0.13 15.93 -0.3 19.71 0.1 C23.62 2.2 26.41 4.3 28.71 8.1 C29.06 10.75 29.06 10.75 29.01 13.74 C28.99 15.34 28.99 15.34 28.98 16.98 C28.95 18.09 28.93 19.2 28.9 20.35 C28.88 22.04 28.88 22.04 28.86 23.76 C28.83 26.54 28.77 29.32 28.71 32.1 C25.08 32.1 21.45 32.1 17.71 32.1 C17.65 30.67 17.59 29.23 17.53 27.76 C17.45 25.89 17.36 24.03 17.28 22.16 C17.24 21.21 17.2 20.27 17.16 19.29 C17.12 18.4 17.07 17.5 17.03 16.57 C16.99 15.74 16.96 14.91 16.92 14.05 C16.92 12.09 16.92 12.09 15.71 11.1 C13.21 10.93 13.21 10.93 10.71 11.1 C9.17 12.64 9.52 14.17 9.43 16.32 C9.4 17.17 9.36 18.02 9.32 18.89 C9.29 19.78 9.25 20.68 9.21 21.6 C9.15 23.36 9.07 25.12 9 26.88 C8.95 28.06 8.95 28.06 8.9 29.26 C8.71 31.1 8.71 31.1 7.71 32.1 C6.05 32.2 4.38 32.23 2.71 32.22 C1.35 32.23 1.35 32.23 -0.04 32.23 C-2.29 32.1 -2.29 32.1 -3.29 31.1 C-3.39 28.89 -3.42 26.68 -3.42 24.47 C-3.42 23.81 -3.42 23.15 -3.42 22.47 C-3.42 21.06 -3.42 19.66 -3.42 18.26 C-3.41 16.11 -3.42 13.95 -3.42 11.8 C-3.42 10.44 -3.42 9.08 -3.42 7.72 C-3.42 6.48 -3.42 5.23 -3.41 3.95 C-3.24 0.14 -3.24 0.14 0 0 Z " fill="#FFFFFF" transform="translate(44.28515625,40.90234375)"/>
<path d="M0 0 C0.81 0 1.63 0.01 2.47 0.01 C3.28 0.01 4.1 0 4.94 0 C6.97 0.13 6.97 0.13 7.97 1.13 C8.06 3.42 8.08 5.72 8.07 8.01 C8.06 8.7 8.06 9.39 8.06 10.09 C8.06 12.29 8.04 14.49 8.03 16.7 C8.03 18.18 8.02 19.67 8.02 21.16 C8.01 24.82 7.99 28.48 7.97 32.13 C4.34 32.13 0.71 32.13 -3.03 32.13 C-3.06 27.74 -3.07 23.34 -3.09 18.94 C-3.09 17.45 -3.1 15.95 -3.11 14.45 C-3.12 12.31 -3.12 10.16 -3.13 8.01 C-3.13 6.72 -3.14 5.42 -3.14 4.09 C-3 0.2 -3 0.2 0 0 Z " fill="#FFFFFF" transform="translate(30.03125,40.8671875)"/>
<path d="M0 0 C1.73 0.15 1.73 0.15 3.5 0.31 C5.66 3.55 5.97 4.56 5.5 8.31 C4.44 10.19 4.44 10.19 2.5 11.31 C-3.94 10.87 -3.94 10.87 -5.5 9.31 C-5.69 5.88 -5.69 5.88 -5.5 2.31 C-3.5 0.31 -3.5 0.31 0 0 Z " fill="#FFFFFF" transform="translate(32.5,26.6875)"/>
</svg>
